<mxfile host="65bd71144e" modified="2021-01-25T08:15:52.587Z" agent="5.0 (Windows NT 10.0; Win64; x64) AppleWebKit/537.36 (KHTML, like Gecko) Code/1.52.1 Chrome/83.0.4103.122 Electron/9.3.5 Safari/537.36" version="13.10.0" etag="HHFSLOGwdKeRvYpi9WJN" type="embed">
    <diagram id="-TRRavvhnZYhEoO9mHNV" name="Page-1">
        <mxGraphModel dx="1080" dy="800" grid="1" gridSize="10" guides="1" tooltips="1" connect="1" arrows="1" fold="1" page="1" pageScale="1" pageWidth="827" pageHeight="1169" math="0" shadow="0">
            <root>
                <mxCell id="0"/>
                <mxCell id="1" parent="0"/>
                <mxCell id="2" value="Moi" style="whiteSpace=wrap;html=1;aspect=fixed;" vertex="1" parent="1">
                    <mxGeometry x="110" y="370" width="80" height="80" as="geometry"/>
                </mxCell>
                <mxCell id="3" value="Nico" style="whiteSpace=wrap;html=1;aspect=fixed;" vertex="1" parent="1">
                    <mxGeometry x="610" y="370" width="80" height="80" as="geometry"/>
                </mxCell>
                <mxCell id="4" value="Github" style="whiteSpace=wrap;html=1;aspect=fixed;" vertex="1" parent="1">
                    <mxGeometry x="370" y="70" width="80" height="80" as="geometry"/>
                </mxCell>
                <mxCell id="5" value="" style="shape=flexArrow;endArrow=classic;html=1;entryX=0;entryY=1;entryDx=0;entryDy=0;exitX=0.5;exitY=0;exitDx=0;exitDy=0;" edge="1" parent="1" source="2" target="4">
                    <mxGeometry width="50" height="50" relative="1" as="geometry">
                        <mxPoint x="390" y="430" as="sourcePoint"/>
                        <mxPoint x="440" y="380" as="targetPoint"/>
                        <Array as="points">
                            <mxPoint x="200" y="320"/>
                        </Array>
                    </mxGeometry>
                </mxCell>
                <mxCell id="6" value="" style="shape=flexArrow;endArrow=classic;html=1;entryX=0.25;entryY=0;entryDx=0;entryDy=0;exitX=1;exitY=1;exitDx=0;exitDy=0;" edge="1" parent="1" source="4" target="3">
                    <mxGeometry width="50" height="50" relative="1" as="geometry">
                        <mxPoint x="390" y="430" as="sourcePoint"/>
                        <mxPoint x="440" y="380" as="targetPoint"/>
                    </mxGeometry>
                </mxCell>
                <mxCell id="7" value="requete-2.sql&lt;br&gt;&lt;br&gt;modif 2" style="shape=document;whiteSpace=wrap;html=1;boundedLbl=1;" vertex="1" parent="1">
                    <mxGeometry x="670" y="480" width="110" height="150" as="geometry"/>
                </mxCell>
                <mxCell id="8" value="requete-2.sql&lt;br&gt;&lt;br&gt;modif 1" style="shape=document;whiteSpace=wrap;html=1;boundedLbl=1;" vertex="1" parent="1">
                    <mxGeometry x="95" y="490" width="110" height="150" as="geometry"/>
                </mxCell>
                <mxCell id="9" value="requete-2.sql" style="shape=document;whiteSpace=wrap;html=1;boundedLbl=1;" vertex="1" parent="1">
                    <mxGeometry x="490" y="20" width="110" height="150" as="geometry"/>
                </mxCell>
                <mxCell id="10" value="requete-2.sql&lt;br&gt;&lt;br&gt;modif 1" style="shape=document;whiteSpace=wrap;html=1;boundedLbl=1;" vertex="1" parent="1">
                    <mxGeometry x="414" y="480" width="110" height="150" as="geometry"/>
                </mxCell>
                <mxCell id="11" value="Merge&lt;br&gt;Diff" style="rhombus;whiteSpace=wrap;html=1;" vertex="1" parent="1">
                    <mxGeometry x="530" y="490" width="140" height="115" as="geometry"/>
                </mxCell>
                <mxCell id="12" value="requete-2.sql&lt;br&gt;&lt;br&gt;modif 1&lt;br&gt;modif 2" style="shape=document;whiteSpace=wrap;html=1;boundedLbl=1;" vertex="1" parent="1">
                    <mxGeometry x="545" y="620" width="110" height="150" as="geometry"/>
                </mxCell>
                <mxCell id="13" value="requete-2.sql&lt;br&gt;&lt;br&gt;modif 1&lt;br&gt;modif 2" style="shape=document;whiteSpace=wrap;html=1;boundedLbl=1;" vertex="1" parent="1">
                    <mxGeometry x="650" y="120" width="110" height="150" as="geometry"/>
                </mxCell>
                <mxCell id="14" value="requete-2.sql&lt;br&gt;&lt;br&gt;modif 1&lt;br&gt;modif 2" style="shape=document;whiteSpace=wrap;html=1;boundedLbl=1;" vertex="1" parent="1">
                    <mxGeometry x="95" y="490" width="110" height="150" as="geometry"/>
                </mxCell>
                <mxCell id="15" value="requete-2.sql&lt;br&gt;&lt;br&gt;modif 1" style="shape=document;whiteSpace=wrap;html=1;boundedLbl=1;" vertex="1" parent="1">
                    <mxGeometry x="530" y="70" width="110" height="150" as="geometry"/>
                </mxCell>
            </root>
        </mxGraphModel>
    </diagram>
</mxfile>